<?xml version="1.0" encoding="UTF-8"?>
<svg width="100px" height="100px" viewBox="0 0 100 100" version="1.1" xmlns="http://www.w3.org/2000/svg" xmlns:xlink="http://www.w3.org/1999/xlink">
    <title>ripencc</title>
    <g id="Page-1" stroke="none" stroke-width="1" fill="none" fill-rule="evenodd">
        <g id="ripencc" fill-rule="nonzero">
            <g id="green" fill="#92BD11">
                <rect id="Rectangle" x="0" y="0" width="100" height="100"></rect>
            </g>
            <g id="route-svgrepo-com" transform="translate(18.000000, 16.000000)" fill="#FFFFFF">
                <path d="M51.0468983,32.1480666 L13.9531017,32.1480666 C8.857995,32.1480666 4.7130365,28.0092534 4.7130365,22.9222038 C4.7130365,17.8389171 8.857995,13.7035532 13.9531017,13.7035532 L37.137785,13.7035532 C38.4395257,13.7035532 39.4943033,12.6505844 39.4943033,11.3517766 C39.4943033,10.0529688 38.4395257,9 37.137785,9 L13.9531017,9 C6.25954088,9 0,15.2453779 0,22.9222038 C0,30.6027926 6.25954088,36.8516198 13.9531017,36.8516198 L51.0468983,36.8516198 C56.142005,36.8516198 60.2869635,40.990433 60.2869635,46.0777962 C60.2869635,51.1610829 56.142005,55.2964468 51.0468983,55.2964468 L27.662068,55.2964468 C26.3606416,55.2964468 25.3055498,56.3494156 25.3055498,57.6482234 C25.3055498,58.9470312 26.3606416,60 27.662068,60 L51.0468983,60 C58.7404591,60 65,53.7546221 65,46.0777962 C65,38.3968938 58.7404591,32.1480666 51.0468983,32.1480666 Z" id="Path"></path>
                <path d="M14,41 C8.48587177,41 4,45.3848218 4,50.7740471 C4,59.0919568 11.9802331,66.9878561 12.3201343,67.3197674 C12.7658388,67.7554011 13.3699316,68 14.0003168,68 C14.6303852,68 15.2347947,67.7554011 15.6804992,67.3197674 C16.0200836,66.9875464 24,59.0919568 24,50.7740471 C23.9993664,45.3848218 19.5138115,41 14,41 Z M14,62.1643044 C11.9482387,59.6889019 8.75164724,55.131932 8.75164724,50.7740471 C8.75164724,47.9453695 11.1062468,45.6442824 14,45.6442824 C16.8937532,45.6442824 19.2477192,47.9456791 19.2477192,50.7740471 C19.2477192,55.131932 16.0511277,59.6889019 14,62.1643044 Z" id="Shape"></path>
                <path d="M50.9980997,27 C51.6058783,27 52.2136568,26.7733538 52.6773294,26.3203711 C53.017166,25.9884521 61,18.0926814 61,9.77396161 C61,4.38461274 56.5130804,0 50.9980997,0 C45.4850193,0 41,4.38461274 41,9.77365198 C41,18.0920621 48.9787167,25.9878328 49.31887,26.3197518 C49.7822259,26.7733538 50.3900044,27 50.9980997,27 Z M50.9980997,4.64438889 C53.8938367,4.64438889 56.2492557,6.94552877 56.2492557,9.77365198 C56.2492557,14.1319465 53.0504212,18.6896401 50.9984164,21.1647898 C48.9473618,18.6896401 45.7507443,14.1322561 45.7507443,9.77365198 C45.7504276,6.94552877 48.1045797,4.64438889 50.9980997,4.64438889 Z" id="Shape"></path>
            </g>
        </g>
    </g>
</svg>