<?xml version="1.0" encoding="UTF-8"?>
<svg width="56px" height="50px" viewBox="0 0 56 50" version="1.1" xmlns="http://www.w3.org/2000/svg" xmlns:xlink="http://www.w3.org/1999/xlink">
    <title>Artificial Noosphere</title>
    <g id="Page-1" stroke="none" stroke-width="1" fill="none" fill-rule="evenodd">
        <g id="Artificial-Noosphere" fill-rule="nonzero">
            <g id="Group" fill="#263238">
                <path d="M2,1 L1,1 C0.72,1 0.5,0.77 0.5,0.5 C0.5,0.22 0.72,0 1,0 L2,0 C2.27,0 2.5,0.22 2.5,0.5 C2.5,0.77 2.27,1 2,1 Z" id="Path"></path>
                <path d="M15,1 L4,1 C3.72,1 3.5,0.77 3.5,0.5 C3.5,0.22 3.72,0 4,0 L15,0 C15.27,0 15.5,0.22 15.5,0.5 C15.5,0.77 15.27,1 15,1 Z" id="Path"></path>
                <path d="M55,50 L54,50 C53.72,50 53.5,49.77 53.5,49.5 C53.5,49.22 53.72,49 54,49 L55,49 C55.27,49 55.5,49.22 55.5,49.5 C55.5,49.77 55.27,50 55,50 Z" id="Path"></path>
                <path d="M52,50 L41,50 C40.72,50 40.5,49.77 40.5,49.5 C40.5,49.22 40.72,49 41,49 L52,49 C52.27,49 52.5,49.22 52.5,49.5 C52.5,49.77 52.27,50 52,50 Z" id="Path"></path>
            </g>
            <line x1="40" y1="13" x2="16" y2="37" id="Path" fill="#FFD740"></line>
            <path d="M16,37.5 C15.87,37.5 15.74,37.45 15.64,37.35 C15.44,37.15 15.44,36.83 15.64,36.64 L39.64,12.64 C39.83,12.44 40.15,12.44 40.34,12.64 C40.53,12.83 40.53,13.15 40.34,13.34 L16.34,37.34 C16.24,37.43 16.11,37.48 15.98,37.48 L16,37.5 Z" id="Path" fill="#263238"></path>
            <path d="M40,11 C38.8954305,11 38,11.8954305 38,13 C38,14.1045695 38.8954305,15 40,15 C41.1045695,15 42,14.1045695 42,13 C42,11.8954305 41.1045695,11 40,11 Z" id="Path" fill="#E4F7AE"></path>
            <path d="M40,15.5 C38.62,15.5 37.5,14.37 37.5,13 C37.5,11.62 38.62,10.5 40,10.5 C41.37,10.5 42.5,11.62 42.5,13 C42.5,14.37 41.37,15.5 40,15.5 Z M40,11.5 C39.17,11.5 38.5,12.17 38.5,13 C38.5,13.82 39.17,14.5 40,14.5 C40.82,14.5 41.5,13.82 41.5,13 C41.5,12.17 40.82,11.5 40,11.5 Z" id="Shape" fill="#263238"></path>
            <path d="M16,35 C14.8954305,35 14,35.8954305 14,37 C14,38.1045695 14.8954305,39 16,39 C17.1045695,39 18,38.1045695 18,37 C18,35.8954305 17.1045695,35 16,35 Z" id="Path" fill="#E4F7AE"></path>
            <path d="M16,39.5 C14.62,39.5 13.5,38.37 13.5,37 C13.5,35.62 14.62,34.5 16,34.5 C17.37,34.5 18.5,35.62 18.5,37 C18.5,38.37 17.37,39.5 16,39.5 Z M16,35.5 C15.17,35.5 14.5,36.17 14.5,37 C14.5,37.82 15.17,38.5 16,38.5 C16.82,38.5 17.5,37.82 17.5,37 C17.5,36.17 16.82,35.5 16,35.5 Z" id="Shape" fill="#263238"></path>
            <line x1="16" y1="13" x2="40" y2="37" id="Path" fill="#FFD740"></line>
            <path d="M40,37.5 C39.87,37.5 39.74,37.45 39.64,37.35 L15.64,13.35 C15.44,13.15 15.44,12.83 15.64,12.64 C15.83,12.44 16.15,12.44 16.34,12.64 L40.34,36.64 C40.53,36.83 40.53,37.15 40.34,37.34 C40.24,37.43 40.11,37.48 39.98,37.48 L40,37.5 Z" id="Path" fill="#263238"></path>
            <path d="M28,17 C23.581722,17 20,20.581722 20,25 C20,29.418278 23.581722,33 28,33 C32.418278,33 36,29.418278 36,25 C36,20.581722 32.418278,17 28,17 Z" id="Path" fill="#92BD11"></path>
            <g id="Group" transform="translate(19.000000, 16.000000)" fill="#263238">
                <path d="M9,17.5 C4.31,17.5 0.5,13.68 0.5,9 C0.5,4.31 4.31,0.5 9,0.5 C13.68,0.5 17.5,4.31 17.5,9 C17.5,13.68 13.68,17.5 9,17.5 Z M9,1.5 C4.86,1.5 1.5,4.86 1.5,9 C1.5,13.13 4.86,16.5 9,16.5 C13.13,16.5 16.5,13.13 16.5,9 C16.5,4.86 13.13,1.5 9,1.5 Z" id="Shape"></path>
                <path d="M9,5.5 C6.65,5.5 4.398,4.99 2.8,4.1 C2.55,3.96 2.47,3.66 2.6,3.42 C2.73,3.17 3.03,3.09 3.28,3.22 C4.72,4.02 6.8,4.49 8.98,4.49 C11.16,4.49 13.24,4.02 14.68,3.22 C14.92,3.08 15.22,3.17 15.36,3.41 C15.49,3.65 15.4,3.95 15.16,4.09 C13.56,4.97 11.31,5.48 8.965,5.48 L9,5.5 Z" id="Path"></path>
                <path d="M14.95,14.833 C14.86,14.833 14.78,14.803 14.7,14.763 C13.25,13.953 11.17,13.493 8.99,13.493 C6.81,13.493 4.73,13.953 3.28,14.763 C3.03,14.893 2.73,14.803 2.6,14.563 C2.46,14.313 2.55,14.013 2.79,13.883 C4.38,12.993 6.64,12.483 8.98,12.483 C11.32,12.483 13.58,12.983 15.175,13.873 C15.415,14.003 15.495,14.303 15.365,14.553 C15.265,14.713 15.095,14.803 14.925,14.803 L14.95,14.833 Z" id="Path"></path>
                <path d="M9,17.5 C5.99,17.5 3.54,13.68 3.54,9 C3.54,4.31 5.98,0.5 8.99,0.5 C11.99,0.5 14.44,4.31 14.44,9 C14.44,13.68 11.99,17.5 8.98,17.5 L9,17.5 Z M9,1.5 C6.54,1.5 4.54,4.86 4.54,9 C4.54,13.13 6.53,16.5 8.99,16.5 C11.44,16.5 13.44,13.13 13.44,9 C13.44,4.86 11.44,1.5 8.98,1.5 L9,1.5 Z" id="Shape"></path>
                <path d="M9,17.5 C8.72,17.5 8.5,17.27 8.5,17 L8.5,1 C8.5,0.72 8.72,0.5 9,0.5 C9.27,0.5 9.5,0.72 9.5,1 L9.5,17 C9.5,17.27 9.27,17.5 9,17.5 Z" id="Path"></path>
                <path d="M17,9.5 L1,9.5 C0.72,9.5 0.5,9.27 0.5,9 C0.5,8.72 0.72,8.5 1,8.5 L17,8.5 C17.27,8.5 17.5,8.72 17.5,9 C17.5,9.27 17.27,9.5 17,9.5 Z" id="Path"></path>
            </g>
            <path d="M16,11 C14.8954305,11 14,11.8954305 14,13 C14,14.1045695 14.8954305,15 16,15 C17.1045695,15 18,14.1045695 18,13 C18,11.8954305 17.1045695,11 16,11 Z" id="Path" fill="#E4F7AE"></path>
            <g id="Group" transform="translate(3.000000, 0.000000)" fill="#263238">
                <path d="M13,15.5 C11.62,15.5 10.5,14.37 10.5,13 C10.5,11.62 11.62,10.5 13,10.5 C14.37,10.5 15.5,11.62 15.5,13 C15.5,14.37 14.37,15.5 13,15.5 Z M13,11.5 C12.17,11.5 11.5,12.17 11.5,13 C11.5,13.82 12.17,14.5 13,14.5 C13.82,14.5 14.5,13.82 14.5,13 C14.5,12.17 13.82,11.5 13,11.5 Z" id="Shape"></path>
                <path d="M25,50 C23.07,50 21.5,48.43 21.5,46.5 C21.5,44.57 23.07,43 25,43 C26.92,43 28.5,44.57 28.5,46.5 C28.5,48.43 26.93,50 25,50 Z M25,44 C23.62,44 22.5,45.12 22.5,46.5 C22.5,47.87 23.62,49 25,49 C26.37,49 27.5,47.87 27.5,46.5 C27.5,45.12 26.37,44 25,44 Z" id="Shape"></path>
                <path d="M3.5,28.5 C1.57,28.5 0,26.93 0,25 C0,23.07 1.57,21.5 3.5,21.5 C5.43,21.5 7,23.07 7,25 C7,26.93 5.43,28.5 3.5,28.5 Z M3.5,22.5 C2.12,22.5 1,23.62 1,25 C1,26.37 2.12,27.5 3.5,27.5 C4.87,27.5 6,26.37 6,25 C6,23.62 4.87,22.5 3.5,22.5 Z" id="Shape"></path>
                <path d="M46.5,28.5 C44.57,28.5 43,26.93 43,25 C43,23.07 44.57,21.5 46.5,21.5 C48.43,21.5 50,23.07 50,25 C50,26.93 48.43,28.5 46.5,28.5 Z M46.5,22.5 C45.12,22.5 44,23.62 44,25 C44,26.37 45.12,27.5 46.5,27.5 C47.87,27.5 49,26.37 49,25 C49,23.62 47.87,22.5 46.5,22.5 Z" id="Shape"></path>
                <path d="M25,7 C23.07,7 21.5,5.43 21.5,3.5 C21.5,1.57 23.07,0 25,0 C26.92,0 28.5,1.57 28.5,3.5 C28.5,5.43 26.93,7 25,7 Z M25,1 C23.62,1 22.5,2.12 22.5,3.5 C22.5,4.87 23.62,6 25,6 C26.37,6 27.5,4.87 27.5,3.5 C27.5,2.12 26.37,1 25,1 Z" id="Shape"></path>
            </g>
            <path d="M40,35 C38.8954305,35 38,35.8954305 38,37 C38,38.1045695 38.8954305,39 40,39 C41.1045695,39 42,38.1045695 42,37 C42,35.8954305 41.1045695,35 40,35 Z" id="Path" fill="#E4F7AE"></path>
            <path d="M40,39.5 C38.62,39.5 37.5,38.37 37.5,37 C37.5,35.62 38.62,34.5 40,34.5 C41.37,34.5 42.5,35.62 42.5,37 C42.5,38.37 41.37,39.5 40,39.5 Z M40,35.5 C39.17,35.5 38.5,36.17 38.5,37 C38.5,37.82 39.17,38.5 40,38.5 C40.82,38.5 41.5,37.82 41.5,37 C41.5,36.17 40.82,35.5 40,35.5 Z" id="Shape" fill="#263238"></path>
        </g>
    </g>
</svg>